<svg version="1.1" xmlns="http://www.w3.org/2000/svg" xmlns:xlink="http://www.w3.org/1999/xlink" width="32" height="32" viewBox="0 0 32 32">
<path d="M31 8h-1v-3c0-0.552-0.448-1-1-1h-3v-3c0-0.552-0.448-1-1-1s-1 0.448-1 1v3h-3c-0.552 0-1 0.448-1 1v3h-1c-0.552 0-1 0.448-1 1v5h6c1.105 0 2 0.895 2 2v14h-2v-13c0-0.552-0.448-1-1-1h-12c-0.552 0-1 0.448-1 1v13h-2v-14c0-1.105 0.895-2 2-2h4v-9c0-0.552-0.448-1-1-1h-12c-0.552 0-1 0.448-1 1v26c0 0.552 0.448 1 1 1h30c0.552 0 1-0.448 1-1v-22c0-0.552-0.448-1-1-1zM22 12h-2v-2h2v2zM10 6h2v2h-2v-2zM10 10h2v2h-2v-2zM6 6h2v2h-2v-2zM4 24h-2v-2h2v2zM4 20h-2v-2h2v2zM4 16h-2v-2h2v2zM4 12h-2v-2h2v2zM4 8h-2v-2h2v2zM6 10h2v2h-2v-2zM22 30h-10v-12h10v12zM26 12h-2v-2h2v2zM30 24h-2v-4h2v4zM30 18h-2v-4h2v4zM30 12h-2v-2h2v2z" fill="#444444"></path>
<path d="M14 20h2v2h-2v-2z" fill="#444444"></path>
<path d="M18 20h2v2h-2v-2z" fill="#444444"></path>
<path d="M14 24h2v2h-2v-2z" fill="#444444"></path>
<path d="M18 24h2v2h-2v-2z" fill="#444444"></path>
</svg>
