<svg version="1.1" xmlns="http://www.w3.org/2000/svg" xmlns:xlink="http://www.w3.org/1999/xlink" x="0px" y="0px"
	 viewBox="0 0 24 24" style="enable-background:new 0 0 24 24;" xml:space="preserve">
<g>
	<path d="M3.6,16.7V2.6h6.9v3.1H12V3.4l2.5,2.4h1.7c0.2,0,0.4,0,0.6,0.1c-0.1-0.1-0.2-0.2-0.3-0.3l-4.2-4C12.1,1.2,11.7,1,11.2,1
		H3.6C2.7,1,2,1.7,2,2.6v14.1c0,0.9,0.7,1.6,1.6,1.6H6v-1.6H3.6z"/>
	<path d="M17.3,7.2C17.2,7,17,6.9,16.8,6.9c-0.2-0.1-0.4-0.1-0.6-0.1H8.6C7.7,6.7,7,7.5,7,8.3v14.1c0,0.3,0.1,0.6,0.3,0.9
		C7.5,23.7,8,24,8.6,24h11.9c0.6,0,1-0.3,1.3-0.7c0.2-0.3,0.3-0.6,0.3-0.9v-10c0-0.4-0.2-0.9-0.5-1.2L17.3,7.2z M19.6,11.6H17V9.1
		L19.6,11.6z M20.4,22.4H8.6V8.3h6.9v4c0,0.4,0.4,0.8,0.8,0.8h4.2V22.4z"/>
</g>
</svg>
