<svg version="1.1" xmlns="http://www.w3.org/2000/svg" xmlns:xlink="http://www.w3.org/1999/xlink" x="0px" y="0px"
	 viewBox="0 0 24 24" style="enable-background:new 0 0 24 24;" xml:space="preserve">
<g>
	<g>
		<g>
			<g>
				<path d="M11,15.8c0.6,0.6,1.5,0.6,2.1,0l4.9-5c1.4-1.4-0.7-3.5-2.1-2.1l-1.7,1.7c-0.4,0.4-0.7,0.3-0.7-0.3V3.4
					c0-0.8-0.7-1.5-1.5-1.5l0,0c-0.8,0-1.5,0.7-1.5,1.5v6.7c0,0.5-0.3,0.7-0.7,0.3L8.2,8.7c-1.4-1.4-3.5,0.7-2.1,2.1L11,15.8z"/>
			</g>
			<g>
				<path d="M19.4,19.6c0,0.3-0.2,0.5-0.5,0.5H5.1c-0.3,0-0.5-0.2-0.5-0.5v-2.9c0-0.8-0.7-1.5-1.5-1.5c-0.8,0-1.5,0.7-1.5,1.5V21
					c0,1.1,0.9,2,2,2h16.7c1.1,0,2-0.9,2-2v-4.4c0-0.8-0.7-1.5-1.5-1.5c-0.8,0-1.5,0.7-1.5,1.5V19.6z"/>
			</g>
		</g>
	</g>
</g>
</svg>
