<svg version="1.1" xmlns="http://www.w3.org/2000/svg" xmlns:xlink="http://www.w3.org/1999/xlink" x="0px" y="0px" width="100px"
	 height="100px" viewBox="0 0 100 100" enable-background="new 0 0 100 100" xml:space="preserve">
<g>
	<g>
		<path fill="none" d="M80.497,52.779h-25.86c-1.933,0-3.5-1.565-3.5-3.5v-4.866c-0.046-0.001-0.091-0.007-0.137-0.007
			c-4.993,0-9.056,4.062-9.056,9.055c0,4.993,4.063,9.055,9.056,9.055c4.545,0,8.308-3.368,8.949-7.738h7.664
			C66.937,63.361,59.753,70.141,51,70.141c-9.198,0-16.68-7.483-16.68-16.68c0-9.197,7.483-16.68,16.68-16.68
			c0.046,0,0.091,0.007,0.137,0.007v-7.628c-0.046,0-0.091-0.003-0.137-0.003c-13.402,0-24.304,10.903-24.304,24.304
			c0,13.401,10.903,24.304,24.304,24.304c12.959,0,23.58-10.195,24.267-22.986h5.23c0.942,0,1.794-0.376,2.423-0.981
			c0.662-0.637,1.077-1.527,1.077-2.519v-2C83.997,51.214,82.43,52.779,80.497,52.779z"/>
		<path fill="#FFFFFF" d="M80.497,24.78h-9.138c-0.966,0-1.75-0.784-1.75-1.75v-6.75v-2H54.637v2v32.999h25.86v-22.5V24.78z"/>
		<polygon fill="#FFFFFF" points="73.109,15.957 73.109,17.957 73.109,21.28 78.67,21.28 		"/>
		<g>
			<polygon fill="none" points="73.109,15.957 73.109,17.957 73.109,21.28 78.67,21.28 			"/>
			<path fill="none" d="M69.609,23.03v-6.75v-2H54.637v2v32.999h25.86v-22.5v-2h-9.138C70.393,24.78,69.609,23.996,69.609,23.03z"/>
			<path fill="#999999" d="M82.918,20.503l-9.138-8.75c-0.652-0.624-1.519-0.973-2.421-0.973H54.637c-1.933,0-3.5,1.568-3.5,3.5v2
				v5.257c-0.046,0-0.091-0.003-0.137-0.003c-17.606,0-31.928,14.322-31.928,31.928c0,17.605,14.323,31.928,31.928,31.928
				c17.493,0,31.738-14.141,31.92-31.591c-0.629,0.605-1.48,0.981-2.423,0.981h-5.23C74.58,67.57,63.959,77.765,51,77.765
				c-13.402,0-24.304-10.903-24.304-24.304c0-13.401,10.903-24.304,24.304-24.304c0.046,0,0.091,0.003,0.137,0.003v7.628
				c-0.046,0-0.091-0.007-0.137-0.007c-9.198,0-16.68,7.483-16.68,16.68c0,9.197,7.483,16.68,16.68,16.68
				c8.753,0,15.938-6.78,16.614-15.362h-7.664c-0.641,4.369-4.404,7.738-8.949,7.738c-4.993,0-9.056-4.062-9.056-9.055
				c0-4.993,4.063-9.055,9.056-9.055c0.046,0,0.091,0.006,0.137,0.007v4.866c0,1.935,1.567,3.5,3.5,3.5h25.86
				c1.933,0,3.5-1.565,3.5-3.5V25.03v-2C83.997,22.075,83.607,21.163,82.918,20.503z M73.109,17.957v-2l5.561,5.323h-5.561V17.957z
				 M80.497,26.78v22.5h-25.86V16.28v-2h14.972v2v6.75c0,0.966,0.784,1.75,1.75,1.75h9.138V26.78z"/>
		</g>
	</g>
</g>
</svg>
