<svg version="1.1" xmlns="http://www.w3.org/2000/svg" xmlns:xlink="http://www.w3.org/1999/xlink" x="0px" y="0px"
	 viewBox="0 0 20 20" enable-background="new 0 0 20 20" xml:space="preserve">
<g>
	<path d="M17.8,8.7h-0.8c-0.4,0-0.7-0.3-0.8-0.6L15.8,7c-0.2-0.3-0.1-0.8,0.2-1l0.6-0.6c0.3-0.3,0.3-0.7,0-0.9l-0.9-0.9
		c-0.3-0.3-0.7-0.3-0.9,0l-0.6,0.6c-0.3,0.3-0.7,0.3-1,0.2l-1.1-0.4c-0.3-0.1-0.6-0.5-0.6-0.8V2.2c0-0.4-0.3-0.7-0.7-0.7H9.3
		C9,1.5,8.7,1.8,8.7,2.2v0.8c0,0.4-0.3,0.7-0.6,0.8L7,4.2c-0.3,0.2-0.8,0.1-1-0.2L5.4,3.5c-0.3-0.3-0.7-0.3-0.9,0L3.5,4.5
		c-0.3,0.3-0.3,0.7,0,0.9l0.6,0.6c0.3,0.3,0.3,0.7,0.2,1L3.8,8.1C3.7,8.4,3.3,8.7,2.9,8.7l-0.8,0C1.8,8.7,1.5,9,1.5,9.3v1.3
		c0,0.4,0.3,0.7,0.7,0.7h0.8c0.4,0,0.7,0.3,0.8,0.6L4.2,13c0.2,0.3,0.1,0.8-0.2,1l-0.6,0.6c-0.3,0.3-0.3,0.7,0,0.9l0.9,0.9
		c0.3,0.3,0.7,0.3,0.9,0l0.6-0.6c0.3-0.3,0.7-0.3,1-0.2l1.1,0.5c0.3,0.1,0.6,0.5,0.6,0.8v0.8c0,0.4,0.3,0.7,0.7,0.7h1.3
		c0.4,0,0.7-0.3,0.7-0.7v-0.8c0-0.4,0.3-0.7,0.6-0.8l1.1-0.5c0.3-0.2,0.8-0.1,1,0.2l0.6,0.6c0.3,0.3,0.7,0.3,0.9,0l0.9-0.9
		c0.3-0.3,0.3-0.7,0-0.9l-0.6-0.6c-0.3-0.3-0.3-0.7-0.2-1l0.5-1.1c0.1-0.3,0.5-0.6,0.8-0.6h0.8c0.4,0,0.7-0.3,0.7-0.7V9.3
		C18.5,9,18.2,8.7,17.8,8.7z M13.3,10c0,1.8-1.5,3.3-3.3,3.3c-1.8,0-3.3-1.5-3.3-3.3c0-1.8,1.5-3.3,3.3-3.3
		C11.8,6.7,13.3,8.2,13.3,10z"/>
</g>
</svg>
