<svg version="1.1" id="Layer_1" xmlns="http://www.w3.org/2000/svg" xmlns:xlink="http://www.w3.org/1999/xlink" x="0px" y="0px"
	 viewBox="0 0 24 24" style="enable-background:new 0 0 24 24;" xml:space="preserve">
<style type="text/css">
	.st0{fill:none;stroke:currentColor;stroke-width:2;stroke-miterlimit:10;}
</style>
<g>
	<g>
		<path class="st0" d="M12,0.9C5.9,0.9,0.9,5.9,0.9,12s5,11.1,11.1,11.1s11.1-5,11.1-11.1S18.1,0.9,12,0.9z"/>
	</g>
</g>
<g>
	<path d="M10.3,13.2c0-0.4,0-0.8,0.1-1.1c0-0.3,0.1-0.6,0.2-0.8c0.1-0.2,0.2-0.4,0.4-0.6c0.2-0.2,0.4-0.3,0.6-0.5
		c0.4-0.2,0.7-0.5,0.9-0.7c0.2-0.2,0.3-0.6,0.3-1c0-0.5-0.1-0.8-0.4-1c-0.2-0.2-0.6-0.3-1.1-0.3c-0.3,0-0.6,0-0.9,0.1
		c-0.3,0.1-0.6,0.2-0.8,0.3L9,5.7c0.4-0.2,0.8-0.4,1.4-0.5C10.8,5,11.5,5,12.3,5c0.5,0,0.9,0.1,1.4,0.2c0.4,0.1,0.8,0.3,1.2,0.5
		c0.3,0.3,0.6,0.6,0.8,1c0.2,0.4,0.3,0.9,0.3,1.4c0,0.8-0.1,1.4-0.4,1.8c-0.3,0.4-0.6,0.8-1,1.1c-0.3,0.2-0.5,0.4-0.7,0.5
		c-0.2,0.2-0.3,0.3-0.5,0.5c-0.1,0.2-0.2,0.4-0.3,0.7C13,12.9,13,13.2,13,13.6v0.5h-2.6V13.2z M10.2,16.9c0-0.6,0.2-1,0.5-1.3
		c0.3-0.2,0.7-0.3,1.1-0.3c0.4,0,0.8,0.1,1.1,0.3c0.3,0.2,0.5,0.6,0.5,1.3c0,0.6-0.2,1.1-0.5,1.3c-0.3,0.2-0.7,0.3-1.1,0.3
		c-0.4,0-0.8-0.1-1.1-0.3C10.3,18,10.2,17.6,10.2,16.9z"/>
</g>
</svg>
