<svg version="1.1" xmlns="http://www.w3.org/2000/svg" xmlns:xlink="http://www.w3.org/1999/xlink" width="32" height="32" viewBox="0 0 32 32">
<g>
</g>
	<path d="M16.462 11.032c0.045-2.647-0.618-4.516-1.99-5.599 0.286 1.54 0.286 2.799 0 3.776-0.973-1.325-2.036-2.062-3.186-2.213 2.145 3.82 3.209 6.728 3.186 8.726-2.257-2.062-4.737-2.455-7.435-1.174 0.421 0.326 0.874 0.533 1.361 0.62 0.489 0.085 1.185 0.444 2.091 1.075-1.658 0.455-2.767 1.368-3.319 2.736 0.62 0.087 1.141-0.034 1.561-0.361 0.419-0.327 1.051-0.629 1.892-0.914 1.042-0.128 1.749-0.111 2.124 0.052 0.379 0.164 0.864 0.268 1.46 0.309-0.043 0.391-0.188 0.662-0.43 0.812-1.353 1.587-2.281 2.781-2.788 3.583-0.509 0.802-0.841 1.622-0.996 2.458-0.156 0.833-0.166 1.375-0.033 1.611 0.263 0.086 0.7-0.119 1.309-0.619s1.367-1.771 2.274-3.809c-0.089 1.67 0.089 2.625 0.533 2.865 0.796-0.327 1.105-1.365 0.928-3.125 0.355 0.735 0.622 1.389 0.796 1.954 0.754-0.391 0.931-2 0.533-4.82 3.186 5.122 3.717 8.9 1.591 11.327-0.685 0.306-1.207 0.4-1.561 0.278-0.355-0.118-0.64-0.166-0.86-0.146-0.932 0.239-1.672 0.559-2.226 0.962-0.556 0.401-1.351 0.602-2.391 0.602-1.151-0.107-2.090-1.011-2.821-2.701-0.221-0.348-0.487-0.58-0.796-0.702-0.311-0.118-0.609-0.417-0.897-0.896-0.267-1.17 0.045-2.427 0.93-3.778 0.509-0.711 1.117-1.365 1.826-1.951 1.859-1.386 2.842-2.476 2.953-3.257-0.684-0.215-1.546 0.164-2.588 1.143-2.123 2.083-4.005 2.962-5.644 2.635-0.642-0.367-1.004-0.674-1.094-0.91-0.090-0.239-0.232-0.469-0.433-0.683-0.309-0.153-0.862-0.521-1.658-1.108-0.355-0.434-0.575-0.965-0.664-1.595 0-0.892 0.132-1.597 0.398-2.118 0.774-0.759 1.294-1.434 1.559-2.018 0.201-0.349 0.267-0.745 0.201-1.189-0.066-0.446-0.033-0.842 0.099-1.189 0.112-0.215 0.393-0.337 0.847-0.358s0.758-0.206 0.913-0.554c0.155-0.346 0.541-0.596 1.162-0.748 0.618-0.153 1.477-0.104 2.572 0.146 1.095 0.25 1.951 0.679 2.571 1.286 0.265 0.238 0.632 0.356 1.097 0.356-0.089-0.867-0.5-1.587-1.23-2.163-0.731-0.573-1.382-1.2-1.957-1.871-0.996-0.781-1.615-1.563-1.859-2.344-0.221-0.543-0.077-1.129 0.431-1.761 0.531-0.411 1.018-0.649 1.461-0.715 0.442-0.066 0.741-0.153 0.898-0.26 0.596-0.955 1.116-1.596 1.56-1.921 1.393-0.694 2.421-0.924 3.086-0.684 2.899 1.281 4.581 2.886 5.046 4.82 0.043 0.975-0.278 1.821-0.964 2.538-0.332 0.63-0.55 1.215-0.647 1.758-0.1 0.545-0.357 1.152-0.78 1.825zM22.040 5.563c-1.349 1.040-2.492 2.457-3.42 4.249-0.929 1.791-1.635 3.396-2.124 4.82-0.487 1.42-0.497 2.219-0.033 2.393 0.753 0.239 1.329-0.83 1.725-3.209 0.401-2.376 1.684-5.127 3.852-8.252zM19.917 17.805c1.835 0.219 3.229 0.691 4.181 1.412 0.955 0.729 1.42 1.431 1.399 2.104-0.49-0.086-1.022-0.302-1.597-0.635-0.575-0.337-1.417-0.604-2.524-0.798 1.371 1.389 1.858 2.476 1.462 3.257-0.398-0.087-0.875-0.424-1.427-1.011-0.577-0.588-1.427-1.161-2.556-1.726 1.371 1.868 2.069 3.389 2.090 4.559 0.023 1.173 0.188 2.173 0.5 2.996 0.617 1.105 1.524 1.539 2.719 1.303 0.868-0.087 1.521-0.393 1.962-0.914 0.444-0.521 1.135-0.713 2.075-0.57 0.941 0.143 1.676-0.233 2.209-1.122 0.328-0.521 0.403-1.107 0.213-1.756-0.188-0.653-0.135-1.153 0.149-1.5 0.288-0.348 0.431-0.827 0.431-1.434-0.33-2.365-1.722-3.841-4.181-4.427-2.723-0.413-5.091-0.327-7.105 0.261zM20.316 12.336c3.118-1.564 5.156-2.042 6.107-1.434 0.089 0.607-0.885 1.281-2.922 2.019-1.484 0.564-2.855 1.499-4.116 2.801 1.948-0.543 3.972-0.717 6.077-0.523 1.085 0.24 1.878 0.5 2.389 0.783 0.51 0.281 1.406 0.457 2.687 0.521 0.577-0.13 0.976-0.694 1.198-1.694 0-0.389-0.1-0.964-0.3-1.726-0.2-0.758-0.165-1.361 0.1-1.805s0.418-0.874 0.463-1.286c-0.818-1.954-2.501-2.821-5.045-2.606-3.255 0.719-5.469 2.368-6.638 4.952zM23.104 4.195c0 0.172-0.049 0.314-0.149 0.422-0.1 0.111-0.227 0.163-0.382 0.163-0.134 0-0.255-0.052-0.365-0.163-0.113-0.108-0.168-0.25-0.168-0.422 0-0.153 0.055-0.289 0.168-0.408 0.109-0.118 0.231-0.177 0.365-0.177 0.155 0 0.281 0.059 0.382 0.177 0.101 0.12 0.149 0.255 0.149 0.408zM24.033 2.175c0 0.153-0.060 0.278-0.184 0.375-0.122 0.097-0.281 0.146-0.481 0.146-0.177 0-0.332-0.049-0.463-0.146-0.134-0.098-0.2-0.222-0.2-0.375 0-0.129 0.066-0.25 0.2-0.357 0.132-0.108 0.286-0.163 0.463-0.163 0.199 0 0.359 0.055 0.481 0.163 0.123 0.107 0.184 0.229 0.184 0.357zM24.697 5.236c0 0.174-0.051 0.314-0.149 0.423s-0.228 0.162-0.384 0.162c-0.13 0-0.253-0.052-0.365-0.162-0.109-0.109-0.165-0.25-0.165-0.423 0-0.151 0.055-0.286 0.165-0.408 0.111-0.118 0.234-0.177 0.365-0.177 0.156 0 0.285 0.059 0.384 0.177 0.099 0.122 0.149 0.257 0.149 0.408zM26.29 2.047c0 0.149-0.055 0.276-0.165 0.375-0.113 0.094-0.254 0.145-0.431 0.145-0.156 0-0.295-0.051-0.413-0.145-0.125-0.099-0.184-0.226-0.184-0.375 0-0.132 0.059-0.252 0.184-0.361 0.118-0.108 0.257-0.162 0.413-0.162 0.177 0 0.318 0.054 0.431 0.162 0.109 0.109 0.165 0.229 0.165 0.361zM26.423 3.933c0 0.175-0.055 0.316-0.166 0.423-0.111 0.109-0.253 0.163-0.433 0.163-0.154 0-0.29-0.054-0.414-0.163-0.12-0.108-0.179-0.248-0.179-0.423 0-0.149 0.059-0.286 0.179-0.406 0.125-0.118 0.26-0.177 0.414-0.177 0.179 0 0.322 0.059 0.433 0.177 0.111 0.119 0.166 0.257 0.166 0.406z" fill="#000000" />
</svg>
