<svg version="1.1" xmlns="http://www.w3.org/2000/svg" xmlns:xlink="http://www.w3.org/1999/xlink" x="0px" y="0px"
	 viewBox="0 0 24 24" style="enable-background:new 0 0 24 24;" xml:space="preserve">
	<g>
		<path d="M21.6,12.1c-0.1,5.3-4.4,9.5-9.6,9.4c-2.1,0-4-0.7-5.7-2c-0.6-0.5-0.8-1.4-0.3-2c0.5-0.6,1.4-0.8,2-0.3
			c1.1,0.9,2.5,1.3,3.9,1.4c3.6,0,6.6-2.9,6.7-6.5c0-2.2-1-4.2-2.7-5.4c0,0-0.1,0-0.1-0.1c-1.1-0.8-2.4-1.2-3.7-1.2l-0.1,0
			c-0.2,0-0.4,0-0.5,0l-0.2,0c-0.1,0-0.3,0-0.4,0.1c-0.1,0-0.2,0-0.2,0.1c-0.1,0-0.3,0.1-0.4,0.1L10,5.7C9.9,5.8,9.7,5.8,9.6,5.9
			l-0.1,0C9.3,6,9.2,6.1,9,6.2C8.4,6.5,7.9,6.8,7.4,7.3C7.3,7.4,7.2,7.6,7,7.7L7,7.8c-0.9,1.1-1.4,2.4-1.5,3.7l2.1,0L4,16.9l-3.5-5.5
			l2.2,0c0,0,0,0,0,0c0-0.6,0.1-1.3,0.3-1.9c0-0.1,0-0.1,0.1-0.2C3,9.2,3,9.1,3.1,8.9c0-0.1,0-0.1,0.1-0.2c0.1-0.3,0.2-0.6,0.4-0.9
			c0-0.1,0.1-0.2,0.1-0.3c0.1-0.1,0.1-0.3,0.2-0.4C3.9,7.1,4,7,4,6.9c0.1-0.1,0.2-0.3,0.3-0.4l0-0.1c0.1-0.1,0.2-0.2,0.3-0.3L4.7,6
			c0,0,0.1-0.1,0.1-0.1l0,0C5,5.6,5.2,5.4,5.4,5.2l0,0c0,0,0,0,0,0l0,0C5.6,5,5.8,4.8,6,4.6c0,0,0.1-0.1,0.1-0.1
			c0.2-0.1,0.4-0.3,0.6-0.4C6.8,4.1,6.8,4,6.9,4c0.2-0.1,0.4-0.3,0.7-0.4l0,0c0,0,0,0,0,0l0,0c0.2-0.1,0.5-0.2,0.7-0.3l0.1,0
			c0,0,0,0,0,0l0,0C8.7,3.1,8.9,3,9.1,2.9c0,0,0,0,0,0c0.1,0,0.3-0.1,0.4-0.1c0.1,0,0.3-0.1,0.4-0.1l0.1,0c0.1,0,0.2,0,0.3-0.1
			c0,0,0,0,0.1,0c0,0,0.1,0,0.1,0c0.1,0,0.3,0,0.4-0.1l0.2,0c0,0,0.1,0,0.1,0l0,0c0.3,0,0.6,0,0.9,0c0.3,0,0.6,0,0.9,0.1c0,0,0,0,0,0
			c0.3,0,0.6,0.1,0.9,0.1c0,0,0.1,0,0.1,0c0.6,0.1,1.1,0.3,1.7,0.5c0.1,0,0.2,0.1,0.3,0.1c0.1,0.1,0.3,0.1,0.4,0.2
			c0.1,0.1,0.3,0.1,0.4,0.2C17,3.8,17.1,3.9,17.2,4c0.1,0.1,0.3,0.2,0.4,0.3c0,0,0,0,0,0c0,0,0,0,0,0C20,6,21.6,8.9,21.6,12.1z"/>
		<path d="M15,11.8h-2.2V8.6c0-0.4-0.3-0.7-0.7-0.7c-0.4,0-0.7,0.3-0.7,0.7v4.7H15c0.4,0,0.7-0.3,0.7-0.7
			C15.7,12.2,15.4,11.8,15,11.8z"/>
	</g>
</svg>
