<svg version="1.1" xmlns="http://www.w3.org/2000/svg" xmlns:xlink="http://www.w3.org/1999/xlink" x="0px" y="0px"
	 width="18px" height="18px" viewBox="3 3 18 18" enable-background="new 3 3 18 18" xml:space="preserve">
<g>
	<g>
		<path d="M11.963,2.963c-4.97,0-9,4.029-9,9s4.03,9,9,9c4.972,0,9-4.029,9-9S16.935,2.963,11.963,2.963z M13.138,16.11
			l-0.408,1.994h-0.523c-1.616,0-2.4-0.588-2.4-1.944c0-0.213,0.018-0.441,0.065-0.687l1.061-5.484h2.4L12.4,14.805
			c-0.049,0.294-0.099,0.523-0.099,0.686C12.302,15.899,12.516,15.979,13.138,16.11z M12.336,9.285c-0.652,0-1.16-0.473-1.16-1.094
			c0-0.083,0-0.164,0.018-0.245c0.146-0.735,0.784-1.322,1.519-1.322c0.653,0,1.176,0.474,1.176,1.094
			C13.889,8.568,13.12,9.285,12.336,9.285z"/>
	</g>
</g>
</svg>
