<svg version="1.1" xmlns="http://www.w3.org/2000/svg" xmlns:xlink="http://www.w3.org/1999/xlink" x="0px" y="0px"
	 width="20px" height="20px" viewBox="233.5 246 20 20" enable-background="new 233.5 246 20 20" xml:space="preserve">
<path d="M233.769,263.1c-0.36,0.36-0.36,0.956,0,1.315l1.315,1.315c0.36,0.357,0.956,0.36,1.315,0l5.12-5.118
	c1.193,0.728,2.584,1.172,4.088,1.172c4.358,0,7.892-3.535,7.892-7.892c0-4.358-3.535-7.892-7.892-7.892
	c-4.357,0-7.892,3.535-7.892,7.892c0,1.504,0.443,2.894,1.174,4.088L233.769,263.1L233.769,263.1z M240.346,253.893
	c0-2.906,2.356-5.262,5.262-5.262c2.906,0,5.262,2.356,5.262,5.262s-2.356,5.262-5.262,5.262
	C242.702,259.154,240.346,256.798,240.346,253.893z"/>
</svg>
