<svg version="1.1" xmlns="http://www.w3.org/2000/svg" xmlns:xlink="http://www.w3.org/1999/xlink" x="0px" y="0px"
	 viewBox="0 0 20 20" style="enable-background:new 0 0 20 20;" xml:space="preserve">
<path d="M10,0C4.5,0,0,4.5,0,10s4.5,10,10,10s10-4.5,10-10S15.5,0,10,0z M11,14.8H8.8v-2.3H11V14.8z M13,8.8
	c-0.2,0.3-0.4,0.6-0.6,0.8c-0.2,0.2-0.5,0.4-0.7,0.5c-0.2,0.2-0.4,0.4-0.6,0.6c-0.2,0.2-0.2,0.5-0.2,0.7v0.2H8.8v-0.3
	c0-0.5,0.1-0.8,0.2-1.2c0.1-0.3,0.3-0.6,0.6-0.8c0.2-0.2,0.4-0.4,0.7-0.5c0.2-0.2,0.4-0.3,0.6-0.5C11,8.2,11.1,8,11.1,7.7
	c0-0.3-0.1-0.5-0.3-0.7c-0.2-0.2-0.4-0.3-0.8-0.3c-0.4,0-0.7,0.1-0.9,0.3C8.9,7.4,8.8,7.6,8.8,8H6.7c0-0.9,0.3-1.6,0.8-2.2
	C8.1,5.2,8.9,4.9,10,4.9c1,0,1.8,0.2,2.4,0.7c0.6,0.5,0.9,1.2,0.9,2.1C13.3,8.1,13.2,8.5,13,8.8z"/>
</svg>
