<svg version="1.1" xmlns="http://www.w3.org/2000/svg" xmlns:xlink="http://www.w3.org/1999/xlink" x="0px" y="0px"
	 viewBox="0 0 24 24" style="enable-background:new 0 0 24 24;" xml:space="preserve">
<g>
	<g>
		<path d="M5.9,0H3.8C3.1,0,2.5,0.7,2.5,1.4v21.1c0,0.8,0.6,1.4,1.3,1.4h16.4c0.7,0,1.3-0.6,1.3-1.4V1.4
			c0-0.8-0.6-1.4-1.3-1.4h-2.1H5.9z M19.7,22.2H4.3v-17h15.4V22.2z"/>
		<g>
			<g>
				<path d="M17.1,8.8H6.9c-0.5,0-0.9-0.4-0.9-0.9c0-0.5,0.4-0.9,0.9-0.9h10.3c0.5,0,0.9,0.4,0.9,0.9
					C18.1,8.4,17.7,8.8,17.1,8.8z"/>
			</g>
			<g>
				<path d="M11.8,13H6.9c-0.5,0-0.9-0.4-0.9-0.9c0-0.5,0.4-0.9,0.9-0.9h4.9c0.5,0,0.9,0.4,0.9,0.9
					C12.7,12.6,12.3,13,11.8,13z"/>
			</g>
			<g>
				<path d="M11.8,17.2H6.9c-0.5,0-0.9-0.4-0.9-0.9c0-0.5,0.4-0.9,0.9-0.9h4.9c0.5,0,0.9,0.4,0.9,0.9
					C12.7,16.8,12.3,17.2,11.8,17.2z"/>
			</g>
		</g>
	</g>
</g>
</svg>
