<svg version="1.1" xmlns="http://www.w3.org/2000/svg" xmlns:xlink="http://www.w3.org/1999/xlink" x="0px" y="0px"
	 viewBox="-463 265 32 32" enable-background="new -463 265 32 32" xml:space="preserve">
<g transform="scale(0.0234375 0.0234375)">
	<path fill="#444444" d="M-19469.8,11306.4v170.7h-170.7v1194.6h967.1v-170.7h170.7v-1194.6
		C-18502.7,11306.4-19469.8,11306.4-19469.8,11306.4z M-18787.2,12558h-739.5v-967.1h56.9v910.2h682.7V12558L-18787.2,12558z
		 M-18616.5,12387.3h-739.5v-967.1h739.5V12387.3z M-18900.9,11590.9h-341.3v113.8h341.3
		C-18900.9,11704.6-18900.9,11590.9-18900.9,11590.9z M-18730.3,11761.5h-512v56.9h512V11761.5z M-18730.3,11875.3h-512v56.9h512
		V11875.3z M-18730.3,11989.1h-512v56.9h512V11989.1z M-19071.6,12102.9h-170.7v56.9h170.7V12102.9z"/>
</g>
</svg>
