<svg id="Layer_1" data-name="Layer 1" xmlns="http://www.w3.org/2000/svg" viewBox="0 0 10 10"><title>required-star</title><path d="M8.72,6.63l-0.43.8a0.26,0.26,0,0,1-.4.09L5.69,6.23l0,2.55a0.27,0.27,0,0,1-.29.29H4.57a0.27,0.27,0,0,1-.29-0.29V6.23L2.11,7.52a0.26,0.26,0,0,1-.4-0.09l-0.43-.8a0.27,0.27,0,0,1,.11-0.4L3.57,5,1.39,3.77a0.27,0.27,0,0,1-.11-0.4l0.43-.8a0.26,0.26,0,0,1,.4-0.09L4.28,3.8V1.22A0.27,0.27,0,0,1,4.57.93H5.43a0.27,0.27,0,0,1,.29.29l0,2.58L7.89,2.48a0.26,0.26,0,0,1,.4.09l0.43,0.8a0.27,0.27,0,0,1-.11.4L6.43,5l2.18,1.2A0.27,0.27,0,0,1,8.72,6.63Z"/></svg>