<svg version="1.1" xmlns="http://www.w3.org/2000/svg" xmlns:xlink="http://www.w3.org/1999/xlink" x="0px" y="0px"
	 viewBox="0 0 20 20" style="enable-background:new 0 0 20 20;" xml:space="preserve">
<g>
	<g>
		<path d="M12.1,4.5c0-1-0.8-1.8-1.8-1.8c-1,0-1.8,0.8-1.8,1.8c0,1,0.8,1.8,1.8,1.8C11.3,6.3,12.1,5.5,12.1,4.5z"/>
	</g>
	<g>
		<path d="M12.1,10.4c0-1-0.8-1.8-1.8-1.8c-1,0-1.8,0.8-1.8,1.8c0,1,0.8,1.8,1.8,1.8C11.3,12.2,12.1,11.4,12.1,10.4z"/>
	</g>
	<g>
		<path d="M12.1,16.4c0-1-0.8-1.8-1.8-1.8c-1,0-1.8,0.8-1.8,1.8c0,1,0.8,1.8,1.8,1.8C11.3,18.1,12.1,17.3,12.1,16.4z"/>
	</g>
</g>
</svg>
