<svg version="1.1" xmlns="http://www.w3.org/2000/svg" xmlns:xlink="http://www.w3.org/1999/xlink" x="0px" y="0px"
	 width="18px" height="18px" viewBox="2 2 18 18" enable-background="new 2 2 18 18" xml:space="preserve">
<g>
	<g>
		<path d="M11,2c-4.971,0-9,4.029-9,9s4.029,9,9,9s9-4.029,9-9S15.971,2,11,2z M12.482,15.909c0,0.641-0.524,1.163-1.164,1.163
			H10.86c-0.639,0-1.161-0.522-1.161-1.163v-0.46c0-0.638,0.521-1.16,1.161-1.16h0.458c0.64,0,1.164,0.522,1.164,1.16V15.909z
			 M12.149,12.346c0,0.628-0.389,1.146-0.859,1.146h-0.403c-0.472,0-0.857-0.518-0.857-1.146L9.5,6.217
			c0-0.708,0.579-1.288,1.287-1.288h0.604c0.708,0,1.288,0.581,1.288,1.288L12.149,12.346z"/>
	</g>
</g>
</svg>
