<svg version="1.1" xmlns="http://www.w3.org/2000/svg" xmlns:xlink="http://www.w3.org/1999/xlink" x="0px" y="0px"
	 viewBox="0 0 24 24" style="enable-background:new 0 0 24 24;" xml:space="preserve">
<g>
	<path d="M23.7,4.2c-0.1,0-0.4,0.2-0.6,0.4L20.7,7c-0.2,0.2-0.6,0.2-0.8,0L17,4c-0.2-0.2-0.2-0.6,0-0.8l2.4-2.4
		c0.2-0.2,0.4-0.5,0.4-0.6c0-0.1-0.2-0.3-0.5-0.3H16c-0.3,0-0.7,0.2-0.9,0.4l-2.4,2.4c-0.2,0.2-0.4,0.6-0.4,0.9v3.4L1,18.4
		c-1.3,1.3-1.3,3.3,0,4.6c1.3,1.3,3.3,1.3,4.6,0l11.3-11.3h3.4c0.3,0,0.7-0.2,0.9-0.4l2.4-2.4C23.8,8.7,24,8.3,24,8V4.8
		C24,4.5,23.9,4.2,23.7,4.2z M3.2,22.9c-1.1,0-2-0.9-2-2c0-1.1,0.9-2,2-2c1.1,0,2,0.9,2,2C5.2,22,4.3,22.9,3.2,22.9z"/>
</g>
</svg>
