<svg version="1.1" xmlns="http://www.w3.org/2000/svg" xmlns:xlink="http://www.w3.org/1999/xlink" x="0px" y="0px"
	 viewBox="0 0 24 24" style="enable-background:new 0 0 24 24;" xml:space="preserve">
<g>
	<g>
		<g>
			<g>
				<path d="M13.5,17.4c-0.1-0.1-0.1-0.1-0.1-0.1c0,0,0,0,0,0c-0.5-0.5-0.9-1.1-1.2-1.6C12.1,15.8,12,15.9,12,16l-0.9,3.2
					c-0.1,0.4,0.1,0.6,0.5,0.4l3-1.1c0.1,0,0.2-0.1,0.3-0.2C14.2,18,13.7,17.6,13.5,17.4z"/>
			</g>
			<g>
				<path d="M13.2,14.4c0,0.2,0,0.8,1.2,1.9c0.2,0.2,1,0.9,1.5,0.9c0.1,0,0.2,0,0.3-0.1l5.5-5.5c0,0,0.1-0.1,0.1-0.1
					c-0.7-0.3-1.2-0.8-1.4-1c-0.1-0.1-0.1-0.1-0.1-0.1c0,0,0,0,0,0c-0.6-0.6-1.1-1.2-1.3-1.8c0,0-0.1,0-0.1,0.1L13.2,14.4
					C13.2,14.4,13.2,14.4,13.2,14.4z"/>
			</g>
			<g>
				<path d="M20.1,7.6c0,0.2,0,0.8,1.2,1.9c0.2,0.2,1,0.9,1.5,0.9c0.1,0,0.2,0,0.3-0.1l0.8-0.8C24,9.4,24,9.2,23.9,9l-2.4-2.4
					c-0.1-0.1-0.3-0.1-0.5,0L20.1,7.6C20.1,7.5,20.1,7.6,20.1,7.6z"/>
			</g>
		</g>
		<g>
			<path d="M17.1,17.7v3.4H3.6V2.8h7.8v4.6c0,0.5,0.4,0.9,0.9,0.9h4.8v0.9l1.8-1.7V7.4c0-0.5-0.2-1-0.6-1.3l-4.8-4.6
				c-0.3-0.3-0.8-0.5-1.3-0.5H3.6c-1,0-1.8,0.8-1.8,1.8v18.3c0,1,0.8,1.8,1.8,1.8h13.5c1,0,1.8-0.8,1.8-1.8v-5.3L17.1,17.7z
				 M13.2,3.7l2.9,2.8h-2.9V3.7z"/>
		</g>
	</g>
</g>
</svg>
